<svg width="24" height="24" viewBox="0 0 24 24" fill="none" xmlns="http://www.w3.org/2000/svg">
  <defs>
    <mask id="pocketai-full-mark">
      <rect width="24" height="24" fill="white"/>
      <rect x="7.55" y="5.55" width="8.9" height="4.4" rx="2.1" fill="black"/>
      <circle cx="9.55" cy="7.75" r="0.92" fill="black"/>
      <circle cx="14.45" cy="7.75" r="0.92" fill="black"/>
      <path d="M10.55 8.85C10.93 9.33 11.4 9.57 12 9.57C12.6 9.57 13.07 9.33 13.45 8.85" stroke="black" stroke-width="0.9" stroke-linecap="round"/>
    </mask>
  </defs>
  <g fill="currentColor" mask="url(#pocketai-full-mark)">
    <path d="M13.65 4.25L15.35 1.65L16.6 2.38L15.05 4.72Z"/>
    <circle cx="16.95" cy="1.48" r="0.92"/>
    <path d="M7.55 4.15H10.15L15.2 1.25H15.95L14.2 4.15H17.15L20.1 9L18.15 11.85H16.35L15.82 10.95H8.18L7.65 11.85H5.85L3.9 9L7.55 4.15Z"/>
    <rect x="2.45" y="10.25" width="19.1" height="8.95" rx="1.35"/>
    <path d="M2.45 10.25L7.15 11.85H16.85L21.55 10.25V19.25L12 22.72L2.45 19.25V10.25Z"/>
    <circle cx="7.05" cy="12.85" r="1.12"/>
    <circle cx="16.95" cy="12.85" r="1.12"/>
  </g>
</svg>
